<svg xmlns="http://www.w3.org/2000/svg" width="16" height="16" viewBox="0 0 16 16" fill="none">
<path fill-rule="evenodd" clip-rule="evenodd" d="M10.5292 8.6039L10.5001 8.50003L10.4894 8.33192C11.0867 7.83665 11.5234 7.17384 11.7423 6.42782C11.9706 5.64979 11.9507 4.81993 11.6855 4.05371C11.4202 3.2875 10.9227 2.62301 10.2621 2.15272C9.60162 1.68242 8.81094 1.42969 8.0001 1.42969C7.18925 1.42969 6.39857 1.68242 5.73805 2.15272C5.07753 2.62301 4.58002 3.2875 4.31473 4.05371C4.04945 4.81993 4.02958 5.64979 4.25789 6.42782C4.4862 7.20586 4.95134 7.89339 5.5886 8.39476L5.72464 8.5018L5.56395 8.56618C4.4608 9.00814 3.49827 9.74119 2.77896 10.6872C2.05969 11.6331 1.61057 12.7565 1.4795 13.9376C1.4713 14.0121 1.47786 14.0875 1.4988 14.1595C1.51973 14.2314 1.55464 14.2985 1.60152 14.357C1.6962 14.4751 1.83391 14.5507 1.98436 14.5673C2.13481 14.5838 2.28567 14.5399 2.40376 14.4453C2.52178 14.3506 2.5974 14.213 2.614 14.0626C2.76314 12.735 3.39625 11.5084 4.39226 10.618C5.38828 9.72759 6.67744 9.23537 8.01343 9.23537C9.34942 9.23537 10.6386 9.72759 11.6346 10.618C12.6306 11.5084 13.2637 12.7346 13.4128 14.0622C13.4282 14.2013 13.4947 14.3302 13.5993 14.4233C13.704 14.5165 13.84 14.5675 13.9801 14.5667L14.0409 14.5676L14.0546 14.5658C14.1982 14.546 14.329 14.4718 14.4197 14.3584C14.513 14.2417 14.5565 14.0925 14.5407 13.9439C14.4089 12.7596 13.9574 11.6335 13.2345 10.6862C12.5317 9.76524 11.5982 9.04711 10.5292 8.6039ZM8.0001 8.10002C7.4529 8.10002 6.91799 7.93776 6.46302 7.63375C6.00804 7.32975 5.65343 6.89765 5.44403 6.39211C5.23463 5.88657 5.17984 5.33028 5.28659 4.7936C5.39334 4.25692 5.65684 3.76395 6.04377 3.37702C6.43069 2.9901 6.92367 2.7266 7.46035 2.61985C7.99703 2.51309 8.55331 2.56788 9.05885 2.77728C9.5644 2.98669 9.99649 3.3413 10.3005 3.79627C10.6045 4.25125 10.7668 4.78616 10.7668 5.33335C10.7668 6.06712 10.4753 6.77083 9.95643 7.28968C9.43758 7.80853 8.73386 8.10002 8.0001 8.10002Z" fill="#F3ECFE"/>
</svg>