<svg xmlns="http://www.w3.org/2000/svg" width="16" height="15" viewBox="0 0 16 15" fill="none">
<path fill-rule="evenodd" clip-rule="evenodd" d="M8.51125 2.3972C8.28424 2.01292 7.71576 2.01292 7.48875 2.39719L1.31256 12.852C1.08775 13.2326 1.3661 13.7149 1.82381 13.7149H14.1762C14.6339 13.7149 14.9123 13.2326 14.6874 12.852L8.51125 2.3972ZM6.42426 1.79036C7.12557 0.603204 8.87443 0.603205 9.57574 1.79036L15.7519 12.2452C16.4566 13.4381 15.5751 14.9239 14.1762 14.9239H1.82381C0.42487 14.9239 -0.456613 13.4381 0.248069 12.2452L6.42426 1.79036ZM8.78756 11.4536C8.78756 11.8825 8.43296 12.2267 7.99998 12.2267C7.56701 12.2267 7.21241 11.8825 7.21241 11.4536C7.21241 11.0247 7.56701 10.6805 7.99998 10.6805C8.43296 10.6805 8.78756 11.0247 8.78756 11.4536ZM7.99998 5.28601C8.33785 5.28601 8.61535 5.55468 8.61535 5.8905V8.92492C8.61535 9.26075 8.33785 9.52942 7.99998 9.52942C7.66211 9.52942 7.38461 9.26075 7.38461 8.92492V5.8905C7.38461 5.55468 7.66211 5.28601 7.99998 5.28601Z" fill="#333333"/>
</svg>