<svg xmlns="http://www.w3.org/2000/svg" width="14" height="14" viewBox="0 0 14 14" fill="none">
<path fill-rule="evenodd" clip-rule="evenodd" d="M5.99652 5.99665C5.909 6.08416 5.7903 6.13333 5.66654 6.13333H0.99987C0.876102 6.13333 0.757404 6.08416 0.669886 5.99664C0.58237 5.90913 0.533203 5.79043 0.533203 5.66666V0.999995C0.533203 0.876227 0.58237 0.757529 0.669887 0.670012C0.757404 0.582495 0.876102 0.533328 0.99987 0.533328H5.66654C5.7903 0.533328 5.909 0.582495 5.99652 0.670012C6.08404 0.757529 6.1332 0.876227 6.1332 0.999995V5.66666C6.1332 5.79043 6.08404 5.90913 5.99652 5.99665ZM1.46654 12.5333H5.19987V8.8H1.46654V12.5333ZM8.79987 12.5333H12.5332V8.8H8.79987V12.5333ZM1.46654 5.2H5.19987V1.46666H1.46654V5.2ZM0.99987 7.86666H5.66654C5.7903 7.86666 5.909 7.91583 5.99652 8.00335C6.08404 8.09086 6.1332 8.20956 6.1332 8.33333V13C6.1332 13.1238 6.08404 13.2425 5.99652 13.33C5.909 13.4175 5.7903 13.4667 5.66654 13.4667H0.99987C0.876102 13.4667 0.757404 13.4175 0.669886 13.33C0.58237 13.2425 0.533203 13.1238 0.533203 13V8.33333C0.533203 8.20956 0.58237 8.09086 0.669887 8.00335C0.757404 7.91583 0.876102 7.86666 0.99987 7.86666ZM8.3332 7.86666H12.9999C13.1236 7.86666 13.2423 7.91583 13.3299 8.00335C13.4174 8.09086 13.4665 8.20956 13.4665 8.33333V13C13.4665 13.1238 13.4174 13.2425 13.3299 13.33C13.2423 13.4175 13.1236 13.4667 12.9999 13.4667H8.3332C8.20944 13.4667 8.09074 13.4175 8.00322 13.33C7.9157 13.2425 7.86654 13.1238 7.86654 13V8.33333C7.86654 8.20956 7.9157 8.09086 8.00322 8.00335C8.09074 7.91583 8.20944 7.86666 8.3332 7.86666Z" fill="white"/>
<path fill-rule="evenodd" clip-rule="evenodd" d="M8.00325 5.99664C8.09077 6.08416 8.20946 6.13333 8.33323 6.13333H12.9999C13.1237 6.13333 13.2424 6.08416 13.3299 5.99664C13.4174 5.90912 13.4666 5.79043 13.4666 5.66666V0.999992C13.4666 0.876224 13.4174 0.757526 13.3299 0.670009C13.2424 0.582492 13.1237 0.533325 12.9999 0.533325H8.33323C8.20946 0.533325 8.09077 0.582492 8.00325 0.670009C7.91573 0.757526 7.86656 0.876224 7.86656 0.999992V5.66666C7.86656 5.79043 7.91573 5.90913 8.00325 5.99664ZM12.5332 5.19999H8.7999V1.46666H12.5332V5.19999Z" fill="white"/>
</svg>