<svg xmlns="http://www.w3.org/2000/svg" width="16" height="16" viewBox="0 0 16 16" fill="none">
<path fill-rule="evenodd" clip-rule="evenodd" d="M7.9999 7.00054L12.8934 2.10702C13.1694 1.83102 13.6169 1.83102 13.8929 2.10702C14.1689 2.38302 14.1689 2.83051 13.8929 3.10651L8.99939 8.00002L13.8929 12.8935C14.1689 13.1695 14.1689 13.617 13.8929 13.893C13.6169 14.169 13.1694 14.169 12.8934 13.893L7.9999 8.99951L3.10639 13.893C2.83039 14.169 2.3829 14.169 2.1069 13.893C1.8309 13.617 1.8309 13.1695 2.1069 12.8935L7.00042 8.00002L2.1069 3.10651C1.8309 2.83051 1.8309 2.38302 2.1069 2.10702C2.3829 1.83102 2.83039 1.83102 3.10639 2.10702L7.9999 7.00054Z" fill="#333333"/>
</svg>