<svg xmlns="http://www.w3.org/2000/svg" width="16" height="16" viewBox="0 0 16 16" fill="none">
<path fill-rule="evenodd" clip-rule="evenodd" d="M8.56316 1.88177C9.30499 1.16528 10.2986 0.768821 11.3299 0.777782C12.3612 0.786744 13.3477 1.20041 14.077 1.92968C14.8062 2.65895 15.2199 3.64548 15.2289 4.67679C15.2378 5.7081 14.8414 6.70166 14.1249 7.4435L14.1183 7.45037L12.1177 9.45086C11.7189 9.84972 11.239 10.1582 10.7106 10.3554C10.1821 10.5525 9.61747 10.6337 9.05489 10.5934C8.49231 10.5531 7.94498 10.3923 7.45001 10.1218C6.95505 9.85142 6.52403 9.47771 6.18619 9.02606C5.98771 8.76071 6.04191 8.3847 6.30726 8.18621C6.57261 7.98773 6.94863 8.04194 7.14711 8.30729C7.38188 8.62114 7.6814 8.88084 8.02536 9.06876C8.36932 9.25668 8.74967 9.36843 9.14061 9.39643C9.53156 9.42443 9.92395 9.36802 10.2912 9.23103C10.6584 9.09405 10.9919 8.87968 11.269 8.60249L13.2649 6.60661C13.7606 6.09149 14.0351 5.40222 14.0289 4.68722C14.0227 3.97054 13.7352 3.28499 13.2284 2.77821C12.7217 2.27143 12.0361 1.98396 11.3194 1.97774C10.6042 1.97152 9.915 2.24595 9.39981 2.74202L8.25634 3.87884C8.02135 4.11247 7.64145 4.11136 7.40782 3.87636C7.17419 3.64137 7.1753 3.26147 7.41029 3.02784L8.56316 1.88177ZM5.28944 5.64465C5.81789 5.44752 6.38255 5.36635 6.94513 5.40664C7.50771 5.44693 8.05504 5.60774 8.55001 5.87816C9.04497 6.14859 9.47599 6.52229 9.81383 6.97394C10.0123 7.23929 9.95811 7.6153 9.69275 7.81379C9.4274 8.01227 9.05139 7.95807 8.85291 7.69272C8.61814 7.37886 8.31862 7.11916 7.97466 6.93124C7.6307 6.74332 7.25035 6.63157 6.85941 6.60357C6.46846 6.57558 6.07607 6.63198 5.70884 6.76897C5.34161 6.90596 5.00814 7.12032 4.73104 7.39752L2.73517 9.39338C2.23944 9.90851 1.96489 10.5978 1.9711 11.3128C1.97733 12.0295 2.26479 12.715 2.77157 13.2218C3.27835 13.7286 3.96391 14.016 4.68058 14.0223C5.39559 14.0285 6.0845 13.7543 6.59963 13.2585L7.73577 12.1224C7.97008 11.8881 8.34998 11.8881 8.5843 12.1224C8.81861 12.3567 8.81861 12.7366 8.5843 12.9709L7.43754 14.1177C6.6957 14.8342 5.70146 15.2312 4.67015 15.2222C3.63884 15.2133 2.65231 14.7996 1.92304 14.0703C1.19377 13.3411 0.780107 12.3545 0.771145 11.3232C0.762183 10.2919 1.15864 9.29834 1.87513 8.5565L1.88177 8.54963L3.88236 6.54914C4.2811 6.15029 4.76102 5.84176 5.28944 5.64465Z" fill="#F3ECFE"/>
</svg>