<svg xmlns="http://www.w3.org/2000/svg" width="15" height="15" viewBox="0 0 15 15" fill="none">
<path d="M7.43229 1.2C4.98386 1.2 2.86395 2.61125 1.84396 4.66667H3.26667C3.59804 4.66667 3.86667 4.9353 3.86667 5.26667C3.86667 5.59804 3.59804 5.86667 3.26667 5.86667H0.766667C0.343249 5.86667 6.05261e-07 5.52342 6.05261e-07 5.1V2.6C6.05261e-07 2.26863 0.26863 2 0.600001 2C0.931372 2 1.2 2.26863 1.2 2.6V3.37931C2.52594 1.34558 4.82151 0 7.43229 0C11.5381 0 14.8667 3.32793 14.8667 7.43333C14.8667 11.5387 11.5381 14.8667 7.43229 14.8667C3.38853 14.8667 0.0988341 11.6387 0.000184217 7.61889C-0.00794543 7.28762 0.254012 7.01248 0.585283 7.00435C0.916555 6.99622 1.19169 7.25817 1.19982 7.58945C1.28253 10.9596 4.04124 13.6667 7.43229 13.6667C10.8755 13.6667 13.6667 10.8758 13.6667 7.43333C13.6667 3.99084 10.8755 1.2 7.43229 1.2Z" fill="#595959"/>
<path d="M7.86667 4.26667C7.86667 3.9353 7.59804 3.66667 7.26667 3.66667C6.9353 3.66667 6.66667 3.9353 6.66667 4.26667V7.93333C6.66667 8.14865 6.78204 8.34745 6.96898 8.45428L9.30232 9.78761C9.59003 9.95202 9.95654 9.85206 10.1209 9.56435C10.2854 9.27664 10.1854 8.91013 9.89768 8.74572L7.86667 7.58514V4.26667Z" fill="#595959"/>
</svg>