<svg xmlns="http://www.w3.org/2000/svg" width="18" height="18" viewBox="0 0 18 18" fill="none">
<path fill-rule="evenodd" clip-rule="evenodd" d="M4.61021 2.43036C5.90957 1.56216 7.43719 1.09876 8.9999 1.09876C10.0375 1.09876 11.065 1.30313 12.0236 1.7002C12.9822 2.09728 13.8532 2.67928 14.5869 3.41298C15.3206 4.14667 15.9026 5.0177 16.2997 5.97632C16.6968 6.93494 16.9011 7.96239 16.9011 8.99999C16.9011 10.5627 16.4377 12.0903 15.5695 13.3897C14.7013 14.689 13.4673 15.7018 12.0236 16.2998C10.5798 16.8978 8.99114 17.0543 7.45845 16.7494C5.92576 16.4445 4.5179 15.692 3.41289 14.587C2.30788 13.482 1.55536 12.0741 1.25049 10.5414C0.945621 9.00876 1.10209 7.42008 1.70012 5.97632C2.29814 4.53256 3.31086 3.29856 4.61021 2.43036ZM5.11583 14.8129C6.26552 15.5811 7.61719 15.9911 8.9999 15.9911C10.8541 15.9911 12.6323 15.2546 13.9434 13.9435C15.2545 12.6324 15.991 10.8542 15.991 8.99999C15.991 7.61727 15.581 6.26561 14.8128 5.11592C14.0446 3.96623 12.9528 3.07016 11.6753 2.54102C10.3978 2.01188 8.99215 1.87343 7.636 2.14318C6.27985 2.41294 5.03415 3.07878 4.05642 4.05651C3.07869 5.03424 2.41285 6.27994 2.14309 7.63609C1.87334 8.99224 2.01179 10.3979 2.54093 11.6754C3.07007 12.9529 3.96615 14.0447 5.11583 14.8129Z" fill="#00B88C"/>
<path fill-rule="evenodd" clip-rule="evenodd" d="M4.55534 2.34824C5.87094 1.46919 7.41765 0.999994 8.9999 0.999994C10.0505 0.999994 11.0908 1.20692 12.0614 1.60896C13.032 2.011 13.9139 2.60027 14.6568 3.34314C15.3996 4.08601 15.9889 4.96792 16.3909 5.93852C16.793 6.90913 16.9999 7.94942 16.9999 8.99999C16.9999 10.5822 16.5307 12.129 15.6517 13.4446C14.7726 14.7601 13.5232 15.7855 12.0614 16.391C10.5996 16.9965 8.99103 17.155 7.43918 16.8463C5.88733 16.5376 4.46187 15.7757 3.34305 14.6568C2.22423 13.538 1.46231 12.1126 1.15362 10.5607C0.844942 9.00887 1.00337 7.40033 1.60887 5.93852C2.21437 4.47672 3.23975 3.22729 4.55534 2.34824ZM5.1707 14.7308C6.30415 15.4881 7.63672 15.8924 8.9999 15.8924C10.8279 15.8924 12.581 15.1662 13.8736 13.8736C15.1661 12.5811 15.8923 10.828 15.8923 8.99999C15.8923 7.63681 15.4881 6.30424 14.7307 5.17079C13.9734 4.03735 12.8969 3.15393 11.6375 2.63227C10.3781 2.1106 8.99226 1.97411 7.65527 2.24005C6.31828 2.50599 5.09017 3.16243 4.12626 4.12634C3.16234 5.09026 2.50591 6.31836 2.23996 7.65535C1.97402 8.99235 2.11051 10.3782 2.63218 11.6376C3.15385 12.897 4.03726 13.9734 5.1707 14.7308ZM8.9999 1.09876C7.43719 1.09876 5.90957 1.56216 4.61021 2.43036C3.31086 3.29856 2.29814 4.53256 1.70012 5.97632C1.10209 7.42008 0.945621 9.00876 1.25049 10.5414C1.55536 12.0741 2.30788 13.482 3.41289 14.587C4.5179 15.692 5.92576 16.4445 7.45845 16.7494C8.99114 17.0543 10.5798 16.8978 12.0236 16.2998C13.4673 15.7018 14.7013 14.689 15.5695 13.3897C16.4377 12.0903 16.9011 10.5627 16.9011 8.99999C16.9011 7.96239 16.6968 6.93494 16.2997 5.97632C15.9026 5.0177 15.3206 4.14667 14.5869 3.41298C13.8532 2.67928 12.9822 2.09728 12.0236 1.7002C11.065 1.30313 10.0375 1.09876 8.9999 1.09876ZM8.9999 15.9911C7.61719 15.9911 6.26552 15.5811 5.11583 14.8129C3.96615 14.0447 3.07007 12.9529 2.54093 11.6754C2.01179 10.3979 1.87334 8.99224 2.14309 7.63609C2.41285 6.27994 3.07869 5.03424 4.05642 4.05651C5.03415 3.07878 6.27985 2.41294 7.636 2.14318C8.99215 1.87343 10.3978 2.01188 11.6753 2.54102C12.9528 3.07016 14.0446 3.96623 14.8128 5.11592C15.581 6.26561 15.991 7.61727 15.991 8.99999C15.991 10.8542 15.2545 12.6324 13.9434 13.9435C12.6323 15.2546 10.8541 15.9911 8.9999 15.9911Z" fill="#00B88C"/>
<path fill-rule="evenodd" clip-rule="evenodd" d="M12.8423 6.16491C12.9618 6.28994 12.9618 6.49265 12.8423 6.61768L7.85647 11.8351C7.79909 11.8951 7.72127 11.9288 7.64013 11.9288C7.55899 11.9288 7.48117 11.8951 7.42379 11.8351L5.1575 9.46353C5.03802 9.3385 5.03802 9.13579 5.1575 9.01076C5.27698 8.88573 5.4707 8.88573 5.59018 9.01076L7.64013 11.1559L12.4096 6.16491C12.5291 6.03988 12.7228 6.03988 12.8423 6.16491Z" fill="#00B88C"/>
<path fill-rule="evenodd" clip-rule="evenodd" d="M12.3616 6.1146C12.5076 5.96179 12.7443 5.96179 12.8904 6.1146L12.8423 6.16491C12.7228 6.03988 12.5291 6.03988 12.4096 6.16491L7.64013 11.1559L5.59018 9.01076C5.4707 8.88573 5.27698 8.88573 5.1575 9.01076C5.03802 9.13579 5.03802 9.3385 5.1575 9.46353L7.42379 11.8351C7.48117 11.8951 7.55899 11.9288 7.64013 11.9288C7.72127 11.9288 7.79909 11.8951 7.85647 11.8351L12.8423 6.61768C12.9618 6.49265 12.9618 6.28994 12.8423 6.16491L12.8904 6.1146C13.0364 6.26742 13.0364 6.51518 12.8904 6.66799L7.90454 11.8854C7.83442 11.9588 7.7393 12 7.64013 12C7.54095 12 7.44584 11.9588 7.37572 11.8854L5.10943 9.51384C4.96339 9.36103 4.96339 9.11327 5.10943 8.96045C5.25546 8.80764 5.49222 8.80764 5.63825 8.96045L7.64013 11.0553L12.3616 6.1146Z" fill="#00B88C"/>
<path fill-rule="evenodd" clip-rule="evenodd" d="M12.3984 6.08076C12.3945 6.08386 12.3907 6.08704 12.387 6.09031C12.3782 6.09792 12.3698 6.10602 12.3616 6.1146L7.64013 11.0553L5.63825 8.96045C5.49222 8.80764 5.25546 8.80764 5.10943 8.96045C4.96339 9.11327 4.96339 9.36103 5.10943 9.51384L7.37572 11.8854C7.44584 11.9588 7.54095 12 7.64013 12C7.7393 12 7.83442 11.9588 7.90454 11.8854L12.8904 6.66799L12.9627 6.73708L7.97684 11.9545C7.88835 12.0471 7.76733 12.1 7.64013 12.1C7.51293 12.1 7.39191 12.0471 7.30342 11.9545L5.03713 9.58293C4.85416 9.39146 4.85416 9.08283 5.03713 8.89137C5.22255 8.69734 5.52513 8.69734 5.71055 8.89137L7.64013 10.9106L12.2893 6.04552C12.4747 5.85149 12.7773 5.85149 12.9627 6.04552C13.1456 6.23698 13.1456 6.54561 12.9627 6.73708L12.8904 6.66799C13.0247 6.52744 13.0355 6.30658 12.9227 6.15313C12.9129 6.13975 12.9021 6.12687 12.8904 6.1146C12.8822 6.10603 12.8737 6.09793 12.865 6.09032C12.8612 6.08704 12.8574 6.08386 12.8536 6.08076C12.7197 5.97307 12.5322 5.97307 12.3984 6.08076Z" fill="#00B88C"/>
<path fill-rule="evenodd" clip-rule="evenodd" d="M12.2893 6.04552L7.64013 10.9106L5.71055 8.89137C5.52513 8.69734 5.22255 8.69734 5.03713 8.89137C4.85416 9.08283 4.85416 9.39146 5.03713 9.58293L7.30342 11.9545C7.39191 12.0471 7.51293 12.1 7.64013 12.1C7.76733 12.1 7.88835 12.0471 7.97684 11.9545L12.9627 6.73708C12.9627 6.73709 12.9627 6.73707 12.9627 6.73708C12.9743 6.72491 12.9852 6.71222 12.9954 6.69917C13.0582 6.61838 13.0926 6.52187 13.0989 6.42384C13.1075 6.2882 13.0621 6.14956 12.9627 6.04552C12.8944 5.97402 12.8101 5.92887 12.7217 5.91006C12.7209 5.9099 12.7202 5.90974 12.7194 5.90958C12.6634 5.89796 12.6057 5.8969 12.5493 5.90642C12.5445 5.90723 12.5397 5.90812 12.5349 5.90909C12.4448 5.92728 12.3588 5.97275 12.2893 6.04552ZM7.64013 10.7658L12.217 5.97643C12.4418 5.74118 12.8102 5.74118 13.035 5.97643C13.2549 6.20655 13.2549 6.57605 13.035 6.80617L8.04914 12.0236C7.94228 12.1354 7.79536 12.2 7.64013 12.2C7.4849 12.2 7.33798 12.1354 7.23112 12.0236L4.96483 9.65202C4.74493 9.4219 4.74493 9.0524 4.96483 8.82228C5.18964 8.58703 5.55804 8.58703 5.78285 8.82228L7.64013 10.7658ZM4.49979 2.26509C5.83182 1.37505 7.39788 0.899994 8.9999 0.899994C10.0636 0.899994 11.1169 1.10951 12.0996 1.51657C13.0824 1.92363 13.9753 2.52027 14.7275 3.27243C15.4796 4.02458 16.0763 4.91752 16.4833 5.90026C16.8904 6.88299 17.0999 7.93628 17.0999 8.99999C17.0999 10.602 16.6248 12.1681 15.7348 13.5001C14.8448 14.8321 13.5797 15.8703 12.0996 16.4834C10.6196 17.0965 8.99092 17.2569 7.41967 16.9444C5.84843 16.6318 4.40515 15.8604 3.27234 14.7276C2.13954 13.5948 1.36809 12.1515 1.05555 10.5802C0.743005 9.00898 0.903412 7.38034 1.51648 5.90026C2.12955 4.42018 3.16775 3.15513 4.49979 2.26509ZM5.22626 14.6476C6.34326 15.394 7.6565 15.7924 8.9999 15.7924C10.8014 15.7924 12.529 15.0767 13.8028 13.8029C15.0767 12.5291 15.7923 10.8014 15.7923 8.99999C15.7923 7.65659 15.3939 6.34335 14.6476 5.22635C13.9012 4.10935 12.8404 3.23875 11.5992 2.72465C10.3581 2.21055 8.99237 2.07604 7.67478 2.33813C6.35718 2.60021 5.1469 3.24712 4.19697 4.19706C3.24704 5.14699 2.60013 6.35727 2.33804 7.67486C2.07595 8.99246 2.21047 10.3582 2.72457 11.5993C3.23866 12.8405 4.10926 13.9013 5.22626 14.6476ZM4.55534 2.34824C5.87094 1.46919 7.41765 0.999994 8.9999 0.999994C10.0505 0.999994 11.0908 1.20692 12.0614 1.60896C13.032 2.011 13.9139 2.60027 14.6568 3.34314C15.3996 4.08601 15.9889 4.96792 16.3909 5.93852C16.793 6.90913 16.9999 7.94942 16.9999 8.99999C16.9999 10.5822 16.5307 12.129 15.6517 13.4446C14.7726 14.7601 13.5232 15.7855 12.0614 16.391C10.5996 16.9965 8.99103 17.155 7.43918 16.8463C5.88733 16.5376 4.46187 15.7757 3.34305 14.6568C2.22423 13.538 1.46231 12.1126 1.15362 10.5607C0.844942 9.00887 1.00337 7.40033 1.60887 5.93852C2.21437 4.47672 3.23975 3.22729 4.55534 2.34824ZM5.1707 14.7308C6.30415 15.4881 7.63672 15.8924 8.9999 15.8924C10.8279 15.8924 12.581 15.1662 13.8736 13.8736C15.1661 12.5811 15.8923 10.828 15.8923 8.99999C15.8923 7.63681 15.4881 6.30424 14.7307 5.17079C13.9734 4.03735 12.8969 3.15393 11.6375 2.63227C10.3781 2.1106 8.99226 1.97411 7.65527 2.24005C6.31828 2.50599 5.09017 3.16243 4.12626 4.12634C3.16234 5.09026 2.50591 6.31836 2.23996 7.65535C1.97402 8.99235 2.11051 10.3782 2.63218 11.6376C3.15385 12.897 4.03726 13.9734 5.1707 14.7308Z" fill="#00B88C"/>
</svg>  