<svg xmlns="http://www.w3.org/2000/svg" width="15" height="14" viewBox="0 0 15 14" fill="none">
<path fill-rule="evenodd" clip-rule="evenodd" d="M2.33328 0.450012C1.29315 0.450012 0.449951 1.29321 0.449951 2.33335V9.00001C0.449951 10.0401 1.29315 10.8833 2.33328 10.8833H7.11661V12.45H4.99995C4.69619 12.45 4.44995 12.6963 4.44995 13C4.44995 13.3038 4.69619 13.55 4.99995 13.55H7.6635L7.66661 13.55L7.66971 13.55H10.3333C10.637 13.55 10.8833 13.3038 10.8833 13C10.8833 12.6963 10.637 12.45 10.3333 12.45H8.21661V10.8833H13C14.0401 10.8833 14.8833 10.0401 14.8833 9.00001V2.33335C14.8833 1.29321 14.0401 0.450012 13 0.450012H2.33328ZM1.54995 2.33335C1.54995 1.90072 1.90066 1.55001 2.33328 1.55001H13C13.4326 1.55001 13.7833 1.90072 13.7833 2.33335V9.00001C13.7833 9.43264 13.4326 9.78335 13 9.78335H2.33328C1.90066 9.78335 1.54995 9.43264 1.54995 9.00001V2.33335Z" fill="black"/>
</svg>