<svg xmlns="http://www.w3.org/2000/svg" width="24" height="24" viewBox="0 0 24 24" fill="none">
<path fill-rule="evenodd" clip-rule="evenodd" d="M10.8999 6.35158C10.8999 5.54989 11.5498 4.89999 12.3515 4.89999C13.1532 4.89999 13.8031 5.54989 13.8031 6.35158C13.8031 7.15327 13.1532 7.80317 12.3515 7.80317C11.5498 7.80317 10.8999 7.15327 10.8999 6.35158ZM10.8999 12C10.8999 11.1983 11.5498 10.5484 12.3515 10.5484C13.1532 10.5484 13.8031 11.1983 13.8031 12C13.8031 12.8017 13.1532 13.4516 12.3515 13.4516C11.5498 13.4516 10.8999 12.8017 10.8999 12ZM10.8999 17.6484C10.8999 16.8467 11.5498 16.1968 12.3515 16.1968C13.1532 16.1968 13.8031 16.8467 13.8031 17.6484C13.8031 18.4501 13.1532 19.1 12.3515 19.1C11.5498 19.1 10.8999 18.4501 10.8999 17.6484Z" fill="#333333"/>
</svg>